<mxfile host="app.diagrams.net" modified="2022-07-05T22:13:11.242Z" agent="5.0 (Macintosh; Intel Mac OS X 10_15_7) AppleWebKit/537.36 (KHTML, like Gecko) Chrome/103.0.0.0 Safari/537.36" etag="CInDXqFZG34yn-Qt9Zg9" version="20.0.4" type="github">
  <diagram id="J3DCZBRzC3aoTUAwQ61n" name="Page-1">
    <mxGraphModel dx="2113" dy="1696" grid="1" gridSize="10" guides="1" tooltips="1" connect="1" arrows="1" fold="1" page="1" pageScale="1" pageWidth="850" pageHeight="1100" math="0" shadow="0">
      <root>
        <mxCell id="0" />
        <mxCell id="1" parent="0" />
        <mxCell id="DPSiODVmER1UZPMJQLEv-13" style="edgeStyle=orthogonalEdgeStyle;rounded=0;orthogonalLoop=1;jettySize=auto;html=1;" parent="1" source="DPSiODVmER1UZPMJQLEv-4" target="DPSiODVmER1UZPMJQLEv-2" edge="1">
          <mxGeometry relative="1" as="geometry" />
        </mxCell>
        <mxCell id="DPSiODVmER1UZPMJQLEv-15" style="edgeStyle=orthogonalEdgeStyle;rounded=0;orthogonalLoop=1;jettySize=auto;html=1;entryX=0;entryY=0;entryDx=0;entryDy=25;entryPerimeter=0;" parent="1" source="DPSiODVmER1UZPMJQLEv-2" target="DPSiODVmER1UZPMJQLEv-9" edge="1">
          <mxGeometry relative="1" as="geometry" />
        </mxCell>
        <mxCell id="DPSiODVmER1UZPMJQLEv-16" style="edgeStyle=orthogonalEdgeStyle;rounded=0;orthogonalLoop=1;jettySize=auto;html=1;exitX=1;exitY=0.5;exitDx=0;exitDy=0;entryX=-0.033;entryY=0.492;entryDx=0;entryDy=0;entryPerimeter=0;" parent="1" source="DPSiODVmER1UZPMJQLEv-2" target="DPSiODVmER1UZPMJQLEv-10" edge="1">
          <mxGeometry relative="1" as="geometry">
            <Array as="points">
              <mxPoint x="570" y="150" />
              <mxPoint x="570" y="210" />
            </Array>
          </mxGeometry>
        </mxCell>
        <mxCell id="DPSiODVmER1UZPMJQLEv-22" style="edgeStyle=orthogonalEdgeStyle;rounded=0;orthogonalLoop=1;jettySize=auto;html=1;entryX=1;entryY=0.5;entryDx=0;entryDy=0;entryPerimeter=0;" parent="1" source="DPSiODVmER1UZPMJQLEv-2" target="DPSiODVmER1UZPMJQLEv-5" edge="1">
          <mxGeometry relative="1" as="geometry" />
        </mxCell>
        <mxCell id="DPSiODVmER1UZPMJQLEv-24" style="edgeStyle=orthogonalEdgeStyle;rounded=0;orthogonalLoop=1;jettySize=auto;html=1;exitX=0.5;exitY=1;exitDx=0;exitDy=0;entryX=0.5;entryY=0;entryDx=0;entryDy=0;entryPerimeter=0;fontColor=#990000;" parent="1" source="DPSiODVmER1UZPMJQLEv-2" target="DPSiODVmER1UZPMJQLEv-6" edge="1">
          <mxGeometry relative="1" as="geometry" />
        </mxCell>
        <mxCell id="DPSiODVmER1UZPMJQLEv-2" value="Train" style="shape=process;whiteSpace=wrap;html=1;backgroundOutline=1;" parent="1" vertex="1">
          <mxGeometry x="380" y="120" width="120" height="60" as="geometry" />
        </mxCell>
        <mxCell id="DPSiODVmER1UZPMJQLEv-3" value="Batch-predict" style="shape=process;whiteSpace=wrap;html=1;backgroundOutline=1;" parent="1" vertex="1">
          <mxGeometry x="850" y="120" width="120" height="60" as="geometry" />
        </mxCell>
        <mxCell id="DPSiODVmER1UZPMJQLEv-21" style="edgeStyle=orthogonalEdgeStyle;rounded=0;orthogonalLoop=1;jettySize=auto;html=1;entryX=0.5;entryY=0;entryDx=0;entryDy=0;" parent="1" source="DPSiODVmER1UZPMJQLEv-4" target="DPSiODVmER1UZPMJQLEv-3" edge="1">
          <mxGeometry relative="1" as="geometry" />
        </mxCell>
        <mxCell id="DPSiODVmER1UZPMJQLEv-4" value="s3://us-east-1-prod-delphi-to-ml-platform-dropzone-s3/user_understanding_embedding_adhoc/WORKFLOW_TARGET" style="shape=cylinder3;whiteSpace=wrap;html=1;boundedLbl=1;backgroundOutline=1;size=15;labelPosition=center;verticalLabelPosition=top;align=center;verticalAlign=bottom;" parent="1" vertex="1">
          <mxGeometry x="410" y="-30" width="60" height="60" as="geometry" />
        </mxCell>
        <mxCell id="DPSiODVmER1UZPMJQLEv-5" value="Model saved in transit bucket&amp;nbsp;&lt;br&gt;s3://us-east-1-prod-sagemaker-transit-s3/" style="shape=cylinder3;html=1;boundedLbl=1;backgroundOutline=1;size=15;labelPosition=left;verticalLabelPosition=top;align=right;verticalAlign=bottom;" parent="1" vertex="1">
          <mxGeometry x="230" y="120" width="60" height="60" as="geometry" />
        </mxCell>
        <mxCell id="DPSiODVmER1UZPMJQLEv-41" style="edgeStyle=orthogonalEdgeStyle;rounded=0;orthogonalLoop=1;jettySize=auto;html=1;exitX=0.5;exitY=1;exitDx=0;exitDy=0;exitPerimeter=0;entryX=0.5;entryY=0;entryDx=0;entryDy=0;fontColor=#990000;" parent="1" source="DPSiODVmER1UZPMJQLEv-6" target="DPSiODVmER1UZPMJQLEv-31" edge="1">
          <mxGeometry relative="1" as="geometry" />
        </mxCell>
        <mxCell id="DPSiODVmER1UZPMJQLEv-6" value="Model saved in internal dropzone bucket&lt;br&gt;&amp;nbsp;s3://us-east-1-prod-ml-platform-internal-dropzone-s3/training-artifacts/PIPELINE_NAME/:latest" style="shape=cylinder3;html=1;boundedLbl=1;backgroundOutline=1;size=15;labelPosition=center;verticalLabelPosition=bottom;align=center;verticalAlign=top;" parent="1" vertex="1">
          <mxGeometry x="410" y="240" width="60" height="60" as="geometry" />
        </mxCell>
        <mxCell id="DPSiODVmER1UZPMJQLEv-18" style="edgeStyle=orthogonalEdgeStyle;rounded=0;orthogonalLoop=1;jettySize=auto;html=1;exitX=0;exitY=0;exitDx=110;exitDy=45;exitPerimeter=0;entryX=0;entryY=0.5;entryDx=0;entryDy=0;" parent="1" source="DPSiODVmER1UZPMJQLEv-9" target="DPSiODVmER1UZPMJQLEv-3" edge="1">
          <mxGeometry relative="1" as="geometry" />
        </mxCell>
        <mxCell id="DPSiODVmER1UZPMJQLEv-9" value="Output - code artifactory path" style="shape=cube;whiteSpace=wrap;html=1;boundedLbl=1;backgroundOutline=1;darkOpacity=0.05;darkOpacity2=0.1;labelPosition=center;verticalLabelPosition=middle;align=center;verticalAlign=middle;" parent="1" vertex="1">
          <mxGeometry x="640" y="70" width="110" height="70" as="geometry" />
        </mxCell>
        <mxCell id="DPSiODVmER1UZPMJQLEv-19" style="edgeStyle=orthogonalEdgeStyle;rounded=0;orthogonalLoop=1;jettySize=auto;html=1;exitX=0;exitY=0;exitDx=120;exitDy=40;exitPerimeter=0;" parent="1" source="DPSiODVmER1UZPMJQLEv-10" target="DPSiODVmER1UZPMJQLEv-3" edge="1">
          <mxGeometry relative="1" as="geometry">
            <Array as="points">
              <mxPoint x="800" y="220" />
              <mxPoint x="800" y="150" />
            </Array>
          </mxGeometry>
        </mxCell>
        <mxCell id="DPSiODVmER1UZPMJQLEv-10" value="Output model artifactory path" style="shape=cube;whiteSpace=wrap;html=1;boundedLbl=1;backgroundOutline=1;darkOpacity=0.05;darkOpacity2=0.1;" parent="1" vertex="1">
          <mxGeometry x="650" y="180" width="120" height="60" as="geometry" />
        </mxCell>
        <mxCell id="DPSiODVmER1UZPMJQLEv-11" value="&lt;font&gt;Output paths are not set&lt;/font&gt; in config files, obtained &lt;br&gt;from the sagemaker console after job submission" style="text;html=1;align=center;verticalAlign=middle;resizable=0;points=[];autosize=1;strokeColor=none;fillColor=none;fontColor=#990000;" parent="1" vertex="1">
          <mxGeometry x="560" y="20" width="280" height="40" as="geometry" />
        </mxCell>
        <mxCell id="DPSiODVmER1UZPMJQLEv-20" value="&lt;font color=&quot;#990000&quot;&gt;Source data files from Delphi &lt;br&gt;for eventstream and transunion&lt;/font&gt;" style="text;html=1;align=center;verticalAlign=middle;resizable=0;points=[];autosize=1;strokeColor=none;fillColor=none;" parent="1" vertex="1">
          <mxGeometry x="200" y="-10" width="190" height="40" as="geometry" />
        </mxCell>
        <mxCell id="DPSiODVmER1UZPMJQLEv-25" value="PIPELINE_NAME can be&amp;nbsp;&lt;b&gt;nwpy-ml-embedding-eventstream&amp;nbsp;&lt;/b&gt;&lt;span style=&quot;background-color: initial;&quot;&gt;or&amp;nbsp;&lt;br&gt;&lt;/span&gt;&lt;b style=&quot;background-color: initial;&quot;&gt;nwpy-ml-embedding-transunion&amp;nbsp;&lt;/b&gt;if run individually or &lt;br&gt;just&amp;nbsp;&lt;b&gt;nwpy-ml-embedding&lt;/b&gt; if run for all workflow targets&amp;nbsp;" style="text;html=1;align=left;verticalAlign=middle;resizable=0;points=[];autosize=1;strokeColor=none;fillColor=none;fontColor=#990000;" parent="1" vertex="1">
          <mxGeometry x="730" y="280" width="370" height="60" as="geometry" />
        </mxCell>
        <mxCell id="DPSiODVmER1UZPMJQLEv-28" style="edgeStyle=orthogonalEdgeStyle;rounded=0;orthogonalLoop=1;jettySize=auto;html=1;exitX=0.5;exitY=1;exitDx=0;exitDy=0;exitPerimeter=0;entryX=0.167;entryY=0;entryDx=0;entryDy=0;entryPerimeter=0;fontColor=#000000;" parent="1" source="DPSiODVmER1UZPMJQLEv-26" target="DPSiODVmER1UZPMJQLEv-2" edge="1">
          <mxGeometry relative="1" as="geometry" />
        </mxCell>
        <mxCell id="DPSiODVmER1UZPMJQLEv-26" value="workflow target" style="shape=card;whiteSpace=wrap;html=1;labelBackgroundColor=none;fontColor=#000000;" parent="1" vertex="1">
          <mxGeometry x="300" y="40" width="70" height="40" as="geometry" />
        </mxCell>
        <mxCell id="DPSiODVmER1UZPMJQLEv-39" style="edgeStyle=orthogonalEdgeStyle;rounded=0;orthogonalLoop=1;jettySize=auto;html=1;exitX=1;exitY=0.5;exitDx=0;exitDy=0;exitPerimeter=0;entryX=0;entryY=0.5;entryDx=0;entryDy=0;fontColor=#990000;" parent="1" source="DPSiODVmER1UZPMJQLEv-29" target="DPSiODVmER1UZPMJQLEv-31" edge="1">
          <mxGeometry relative="1" as="geometry" />
        </mxCell>
        <mxCell id="DPSiODVmER1UZPMJQLEv-29" value="s3://us-east-1-prod-delphi-to-ml-platform-dropzone-s3/user_understanding_vector_adhoc/adhoc/WORKFLOW_TARGET_data" style="shape=cylinder3;whiteSpace=wrap;html=1;boundedLbl=1;backgroundOutline=1;size=15;labelBackgroundColor=none;fontColor=#000000;labelPosition=left;verticalLabelPosition=middle;align=right;verticalAlign=middle;" parent="1" vertex="1">
          <mxGeometry x="250" y="430" width="60" height="60" as="geometry" />
        </mxCell>
        <mxCell id="DPSiODVmER1UZPMJQLEv-40" style="edgeStyle=orthogonalEdgeStyle;rounded=0;orthogonalLoop=1;jettySize=auto;html=1;exitX=1;exitY=0;exitDx=0;exitDy=37.5;exitPerimeter=0;fontColor=#990000;" parent="1" source="DPSiODVmER1UZPMJQLEv-30" target="DPSiODVmER1UZPMJQLEv-31" edge="1">
          <mxGeometry relative="1" as="geometry" />
        </mxCell>
        <mxCell id="DPSiODVmER1UZPMJQLEv-30" value="s3://us-east-1-prod-delphi-to-ml-platform-dropzone-s3/user_understanding_vector_adhoc/adhoc/target_data/" style="shape=cylinder3;whiteSpace=wrap;html=1;boundedLbl=1;backgroundOutline=1;size=15;labelBackgroundColor=none;fontColor=#000000;labelPosition=left;verticalLabelPosition=middle;align=right;verticalAlign=middle;" parent="1" vertex="1">
          <mxGeometry x="250" y="510" width="60" height="60" as="geometry" />
        </mxCell>
        <mxCell id="DPSiODVmER1UZPMJQLEv-45" style="edgeStyle=orthogonalEdgeStyle;rounded=0;orthogonalLoop=1;jettySize=auto;html=1;exitX=0.5;exitY=1;exitDx=0;exitDy=0;fontColor=#000000;" parent="1" source="DPSiODVmER1UZPMJQLEv-31" target="DPSiODVmER1UZPMJQLEv-42" edge="1">
          <mxGeometry relative="1" as="geometry" />
        </mxCell>
        <mxCell id="DPSiODVmER1UZPMJQLEv-46" style="edgeStyle=orthogonalEdgeStyle;rounded=0;orthogonalLoop=1;jettySize=auto;html=1;entryX=0;entryY=0;entryDx=50;entryDy=0;entryPerimeter=0;fontColor=#000000;" parent="1" source="DPSiODVmER1UZPMJQLEv-31" target="DPSiODVmER1UZPMJQLEv-43" edge="1">
          <mxGeometry relative="1" as="geometry">
            <Array as="points">
              <mxPoint x="500" y="565" />
              <mxPoint x="590" y="565" />
            </Array>
          </mxGeometry>
        </mxCell>
        <mxCell id="DPSiODVmER1UZPMJQLEv-31" value="Train secondary models" style="shape=process;whiteSpace=wrap;html=1;backgroundOutline=1;labelBackgroundColor=none;fontColor=#000000;" parent="1" vertex="1">
          <mxGeometry x="440" y="450" width="120" height="70" as="geometry" />
        </mxCell>
        <mxCell id="DPSiODVmER1UZPMJQLEv-32" value="Batch-predict&lt;br&gt;Generate prospective and propensity scores" style="shape=process;whiteSpace=wrap;html=1;backgroundOutline=1;labelBackgroundColor=none;fontColor=#000000;" parent="1" vertex="1">
          <mxGeometry x="690" y="450" width="170" height="70" as="geometry" />
        </mxCell>
        <mxCell id="DPSiODVmER1UZPMJQLEv-35" value="Source data copied from Delphi for eventstream and transunion, along with target data&amp;nbsp;" style="text;html=1;strokeColor=none;fillColor=none;align=center;verticalAlign=middle;rounded=0;labelBackgroundColor=none;fontColor=#990000;" parent="1" vertex="1">
          <mxGeometry x="50" y="400" width="60" height="30" as="geometry" />
        </mxCell>
        <mxCell id="DPSiODVmER1UZPMJQLEv-47" style="edgeStyle=orthogonalEdgeStyle;rounded=0;orthogonalLoop=1;jettySize=auto;html=1;exitX=0;exitY=0;exitDx=63.75;exitDy=80;exitPerimeter=0;fontColor=#000000;entryX=0.703;entryY=0.986;entryDx=0;entryDy=0;entryPerimeter=0;" parent="1" source="DPSiODVmER1UZPMJQLEv-42" target="DPSiODVmER1UZPMJQLEv-32" edge="1">
          <mxGeometry relative="1" as="geometry">
            <mxPoint x="830" y="520" as="targetPoint" />
          </mxGeometry>
        </mxCell>
        <mxCell id="DPSiODVmER1UZPMJQLEv-42" value="&lt;font color=&quot;#000000&quot;&gt;Output - code artifactory path&lt;/font&gt;" style="shape=cube;whiteSpace=wrap;html=1;boundedLbl=1;backgroundOutline=1;darkOpacity=0.05;darkOpacity2=0.1;labelBackgroundColor=none;fontColor=#990000;" parent="1" vertex="1">
          <mxGeometry x="402.5" y="610" width="107.5" height="80" as="geometry" />
        </mxCell>
        <mxCell id="DPSiODVmER1UZPMJQLEv-50" style="edgeStyle=orthogonalEdgeStyle;rounded=0;orthogonalLoop=1;jettySize=auto;html=1;entryX=0.385;entryY=1.014;entryDx=0;entryDy=0;entryPerimeter=0;fontColor=#000000;" parent="1" source="DPSiODVmER1UZPMJQLEv-43" target="DPSiODVmER1UZPMJQLEv-32" edge="1">
          <mxGeometry relative="1" as="geometry" />
        </mxCell>
        <mxCell id="DPSiODVmER1UZPMJQLEv-43" value="&lt;font color=&quot;#000000&quot;&gt;Output model artifactory path&lt;/font&gt;" style="shape=cube;whiteSpace=wrap;html=1;boundedLbl=1;backgroundOutline=1;darkOpacity=0.05;darkOpacity2=0.1;labelBackgroundColor=none;fontColor=#990000;" parent="1" vertex="1">
          <mxGeometry x="540" y="620" width="110" height="80" as="geometry" />
        </mxCell>
        <mxCell id="DPSiODVmER1UZPMJQLEv-51" value="&lt;font style=&quot;font-size: 14px;&quot;&gt;MLplatform DAGs - &lt;a href=&quot;https://github.com/NerdWallet/delphi/tree/master/src/dags&quot;&gt;https://github.com/NerdWallet/nwdags-ml-platform/tree/master/&lt;/a&gt;&lt;/font&gt;" style="text;html=1;align=center;verticalAlign=middle;resizable=0;points=[];autosize=1;strokeColor=none;fillColor=none;fontColor=#000000;" parent="1" vertex="1">
          <mxGeometry x="-160" y="840" width="540" height="30" as="geometry" />
        </mxCell>
        <mxCell id="DPSiODVmER1UZPMJQLEv-52" value="DE DAGs -&amp;nbsp;&lt;a style=&quot;box-sizing: inherit; text-decoration-line: none; font-family: Slack-Lato, Slack-Fractions, appleLogo, sans-serif; font-size: 15px; font-variant-ligatures: common-ligatures; text-align: left;&quot; data-remove-tab-index=&quot;true&quot; tabindex=&quot;-1&quot; rel=&quot;noopener noreferrer&quot; href=&quot;https://github.com/NerdWallet/delphi/tree/master/src/dags&quot; data-sk=&quot;tooltip_parent&quot; data-stringify-link=&quot;https://github.com/NerdWallet/delphi/tree/master/src/dags&quot; class=&quot;c-link&quot; target=&quot;_blank&quot;&gt;https://github.com/NerdWallet/delphi/tree/master/src/dags&lt;/a&gt;" style="text;html=1;align=center;verticalAlign=middle;resizable=0;points=[];autosize=1;strokeColor=none;fillColor=none;fontColor=#000000;" parent="1" vertex="1">
          <mxGeometry x="-160" y="895" width="470" height="30" as="geometry" />
        </mxCell>
        <mxCell id="_g58Uci5oRuEo8WwKI_i-1" value="&lt;font style=&quot;font-size: 20px;&quot;&gt;Adhoc pipeline&lt;/font&gt;" style="text;html=1;align=center;verticalAlign=middle;resizable=0;points=[];autosize=1;strokeColor=none;fillColor=none;" vertex="1" parent="1">
          <mxGeometry x="390" y="-200" width="150" height="40" as="geometry" />
        </mxCell>
      </root>
    </mxGraphModel>
  </diagram>
</mxfile>
